<svg xmlns="http://www.w3.org/2000/svg" viewBox="0 0 64 64" id="gameboy"><path d="M28.877 39.045h-.797v-.796a1.607 1.607 0 0 0-1.607-1.607H23.63a1.607 1.607 0 0 0-1.607 1.607v.796h-.797a1.607 1.607 0 0 0-1.606 1.607v2.845a1.607 1.607 0 0 0 1.606 1.606h.797v.797a1.607 1.607 0 0 0 1.607 1.607h2.844A1.607 1.607 0 0 0 28.08 45.9v-.797h.797a1.607 1.607 0 0 0 1.607-1.607v-2.844a1.607 1.607 0 0 0-1.607-1.607Zm0 4.452h-2.404V45.9H23.63v-2.403h-2.404v-2.845h2.404V38.25h2.844v2.403h2.404Zm12.26-7.106a3.244 3.244 0 1 0 3.243 3.244 3.247 3.247 0 0 0-3.243-3.244Zm0 4.88a1.636 1.636 0 1 1 1.637-1.636 1.638 1.638 0 0 1-1.637 1.636Zm-4.8.85a3.244 3.244 0 1 0 3.243 3.243 3.247 3.247 0 0 0-3.242-3.243Zm0 4.88a1.636 1.636 0 1 1 1.637-1.637 1.639 1.639 0 0 1-1.636 1.637Zm10.54-37.265H17.123a1.877 1.877 0 0 0-1.875 1.875V52.39a1.877 1.877 0 0 0 1.875 1.875h25.541a6.056 6.056 0 0 0 4.085-1.587c.015-.013.034-.018.048-.032.009-.009.012-.021.02-.03a6.095 6.095 0 0 0 1.617-2.512l.011-.03a6.056 6.056 0 0 0 .307-1.897V11.61a1.877 1.877 0 0 0-1.874-1.875Zm.268 38.367-1.058-1.058a.803.803 0 1 0-1.136 1.137l1.805 1.805a4.455 4.455 0 0 1-.563.92l-2.048-2.048a.803.803 0 1 0-1.136 1.137l1.99 1.988a4.444 4.444 0 0 1-1.104.48l-1.64-1.639a.803.803 0 1 0-1.135 1.136l.696.697H17.123a.268.268 0 0 1-.268-.268V11.61a.268.268 0 0 1 .268-.268h29.755a.268.268 0 0 1 .267.268Zm-4.64-34.28h-21.01a1.877 1.877 0 0 0-1.875 1.874v16.084a1.876 1.876 0 0 0 1.875 1.874h21.01a1.876 1.876 0 0 0 1.875-1.874V15.697a1.877 1.877 0 0 0-1.874-1.875Zm.268 17.958a.267.267 0 0 1-.268.267h-21.01a.267.267 0 0 1-.268-.267V15.697a.268.268 0 0 1 .268-.268h21.01a.268.268 0 0 1 .269.268Z"></path></svg>